# xmcd CD database file
#
# Track frame offsets:
#	150
#	11294
#	20081
#	33997
#	48072
#	59874
#	72061
#	86607
#	100682
#	115221
#	129671
#	143136
#	154519
#	168375
#	182602
#	193716
#	204983
#	214488
#	228166
#	238427
#	250293
#
# Disc length: 3481 seconds
#
# Revision: 0
# Processed by: cddbd v1.5.2PL0 Copyright (c) Steve Scherf et al.
# Submitted via: CDex 1.51
#
DISCID=240d9715
DTITLE=Ella and Ellington - 2CD Collection Of Over 40 Tracks [CD1)
DYEAR=1900
DGENRE=Jazz
TTITLE0=A Tisket, A Tasket
TTITLE1=Lover Come Back To Me
TTITLE2=Stairway To The Stars
TTITLE3=The Dark Town Strutters Ball
TTITLE4=Cryin' Mood
TTITLE5=All Over Nothing
TTITLE6=If You Should Ever Leave
TTITLE7=Everyone's Wrong But Me
TTITLE8=Rock It For Me
TTITLE9=Holiday In Harlem
TTITLE10=Just A Simple Melody
TTITLE11=Love And Kisses
TTITLE12=Rhythem And Romance
TTITLE13=Crying My Heart Out For You
TTITLE14=When I Get Low I Get High
TTITLE15=Is There Somebody Else
TTITLE16=I Wanna' Be A Rug Cutter
TTITLE17=Basin Street Blues
TTITLE18=How High The Moon
TTITLE19=If Dreams Come True
TTITLE20=That Old Black Magic Called Love
EXTD=
EXTT0=
EXTT1=
EXTT2=
EXTT3=
EXTT4=
EXTT5=
EXTT6=
EXTT7=
EXTT8=
EXTT9=
EXTT10=
EXTT11=
EXTT12=
EXTT13=
EXTT14=
EXTT15=
EXTT16=
EXTT17=
EXTT18=
EXTT19=
EXTT20=
PLAYORDER=
